<?xml version="1.0" encoding="UTF-8"?><svg id="Capa_2" xmlns="http://www.w3.org/2000/svg" viewBox="0 0 250 250"><defs><style>.cls-1{fill:#fff;stroke-width:0px;}</style></defs><g id="Capa_1-2"><ellipse class="cls-1" cx="151.78" cy="57.13" rx="11.92" ry="11.76"/><path class="cls-1" d="M117.98,58.12c-25.24,0-45.71,20.19-45.71,45.09s20.46,45.09,45.71,45.09,45.71-20.19,45.71-45.09-20.46-45.09-45.71-45.09ZM118.32,134.58c-17.47,0-31.64-13.97-31.64-31.21s14.16-31.21,31.64-31.21,31.64,13.97,31.64,31.21-14.16,31.21-31.64,31.21Z"/><path class="cls-1" d="M132.59,146.96c-17.3,0-31.33,13.84-31.33,30.9s14.03,30.9,31.33,30.9,31.33-13.84,31.33-30.9-14.02-30.9-31.33-30.9ZM132.83,195.89c-10.06,0-18.22-8.05-18.22-17.97s8.16-17.97,18.22-17.97,18.22,8.05,18.22,17.97-8.16,17.97-18.22,17.97Z"/><path class="cls-1" d="M125,250C56.08,250,0,193.93,0,125S56.08,0,125,0s125,56.07,125,125-56.07,125-125,125ZM125,13.81C63.69,13.81,13.81,63.69,13.81,125s49.88,111.19,111.2,111.19,111.19-49.88,111.19-111.19S186.31,13.81,125,13.81Z"/></g></svg>