<svg id="Layer_1" enable-background="new 0 0 510 510" height="512" viewBox="0 0 510 510" width="512" xmlns="http://www.w3.org/2000/svg"><path d="m465 392.054v-111.44l-36.972-55.459h-38.028v-60h-60v-68.786l21.213-21.213h40.685c6.677 25.849 30.195 45 58.101 45 79.599-3.296 79.574-116.717 0-120-27.906 0-51.423 19.151-58.101 45h-53.112l-38.786 38.786v81.213h-90v-81.213l-38.787-38.787h-53.112c-6.678-25.849-30.195-45-58.102-45-79.599 3.296-79.574 116.717 0 120 27.906 0 51.423-19.151 58.101-45h40.685l21.215 21.214v68.787h-60v60h-38.028l-36.972 55.458v111.44c-25.849 6.677-45 30.195-45 58.101 3.296 79.599 116.717 79.574 120 0 0-27.906-19.151-51.423-45-58.101v-102.357l23.028-34.541h21.972v60h85.789l-7.5 30h-33.289v30h180v-30h-33.289l-7.5-30h85.789v-60h21.972l23.028 34.541v102.357c-25.849 6.677-45 30.195-45 58.101 3.296 79.599 116.717 79.574 120 0 0-27.906-19.151-51.424-45-58.101zm-15-361.899c16.542 0 30 13.458 30 30-1.648 39.799-58.358 39.787-60 0 0-16.542 13.458-30 30-30zm-390 60c-16.542 0-30-13.458-30-30 1.648-39.799 58.358-39.787 60 0 0 16.542-13.458 30-30 30zm30 360c0 16.542-13.458 30-30 30-39.799-1.648-39.787-58.358 0-60 16.542 0 30 13.458 30 30zm190.789-105h-51.577l7.5-30h36.577zm79.211-60c-25.271 0-185.136 0-210 0v-90h210zm90 195c-16.542 0-30-13.458-30-30 1.648-39.799 58.358-39.788 60 0 0 16.542-13.458 30-30 30z"/></svg>