<svg id="Layer_1" enable-background="new 0 0 509.812 509.812" height="512" viewBox="0 0 509.812 509.812" width="512" xmlns="http://www.w3.org/2000/svg"><g><path d="m434.906 420c-19.555 0-36.228 12.541-42.42 30h-95.16c-4.527-12.764-14.656-22.893-27.42-27.42v-32.58h195v-150h-45v-90h45v-150h-420v150h45v90h-45v150h195v32.58c-12.764 4.527-22.893 14.656-27.42 27.42h-95.16c-17.385-46.977-86.462-35.719-87.42 15.001.962 50.727 70.044 61.97 87.42 14.999h95.16c14.183 39.762 70.673 39.737 84.84 0h95.16c17.391 46.983 86.463 35.714 87.42-15.001 0-24.813-20.186-44.999-45-44.999zm0-150v90h-255v-90zm0-150c-7.424 0-66.539 0-75 0v-90h75zm-360 0v-90h255v90c-20.045 0-242.908 0-255 0zm45 30h270v90h-270zm-45 120h75v90h-75zm0 210c-8.271 0-15-6.728-15-15 .824-19.9 29.179-19.894 30 0 0 8.272-6.729 15-15 15zm180 0c-8.271 0-15-6.728-15-15 .824-19.9 29.18-19.894 30 0 0 8.272-6.728 15-15 15zm180 0c-8.272 0-15-6.728-15-15 .823-19.9 29.18-19.894 30 0 0 8.272-6.728 15-15 15z"/><path d="m104.906 60h30v30h-30z"/><path d="m164.906 60h30v30h-30z"/><path d="m314.906 300h30v30h-30z"/><path d="m374.906 300h30v30h-30z"/><path d="m149.906 180h30v30h-30z"/><path d="m209.906 180h30v30h-30z"/><path d="m269.906 180h30v30h-30z"/><path d="m329.906 180h30v30h-30z"/></g></svg>