<svg id="Layer_1" enable-background="new 0 0 510 510" height="512" viewBox="0 0 510 510" width="512" xmlns="http://www.w3.org/2000/svg"><g><path d="m255 360.127c-24.813 0-45 20.187-45 45 2.472 59.699 87.537 59.681 90 0 0-24.813-20.187-45-45-45zm0 60c-8.271 0-15-6.729-15-15 .824-19.9 29.179-19.894 30 0 0 8.271-6.729 15-15 15z"/><path d="m422.58 315.127c17.385 46.977 86.462 35.719 87.42-15.001-.962-50.727-70.044-61.97-87.42-14.999h-38.793l-50.316 50.316c-5.486-6.171-11.685-11.692-18.471-16.434v-99.612l120-60v-84.27h-75v-30h-30v30h-30v-75h-30v75h-30v-45h-30v45h-30v-60h-30v60h-75v84.27l120 60v99.612c-6.785 4.741-12.984 10.263-18.471 16.434l-50.316-50.316h-38.793c-17.385-46.977-86.462-35.719-87.42 15.001.962 50.727 70.044 61.969 87.42 14.999h26.367l45.926 45.925c-10.552 22.003-12.697 50.412-5.338 74.075h-36.955c-17.385-46.977-86.462-35.719-87.42 15.001.962 50.727 70.044 61.969 87.42 14.999h51.463c40.692 59.674 131.566 59.646 172.234 0h51.463c17.385 46.977 86.462 35.719 87.42-15.001-.962-50.727-70.044-61.97-87.42-14.999h-36.954c7.359-23.664 5.213-52.07-5.338-74.075l45.925-45.925zm42.42-30c8.271 0 15 6.729 15 15-.824 19.9-29.179 19.894-30 0 0-8.271 6.728-15 15-15zm-420 30c-8.271 0-15-6.729-15-15 .824-19.9 29.179-19.894 30 0 0 8.271-6.729 15-15 15zm30 150c-8.271 0-15-6.729-15-15 .824-19.9 29.179-19.894 30 0 0 8.271-6.729 15-15 15zm360-30c8.271 0 15 6.729 15 15-.824 19.9-29.179 19.894-30 0 0-8.271 6.728-15 15-15zm-330-294.27v-35.73h300v35.73l-120 60v103.645c-18.853-5.798-41.146-5.797-60 0v-103.645zm150 339.27c-41.355 0-75-33.645-75-75 4.12-99.498 145.896-99.469 150 .001 0 41.354-33.645 74.999-75 74.999z"/></g></svg>